<svg width="314" height="400" viewBox="0 0 314 400" fill="none" xmlns="http://www.w3.org/2000/svg">
<g opacity="0.9">
<path d="M114.084 199.676C79.6417 139.024 96.1334 77.6449 156.262 42.264C191.437 105.968 173.85 162.697 114.084 199.676Z" fill="#184D77"/>
<path d="M157.268 131.095C151.719 149.882 138.827 166.433 120.627 178.683C108.845 157.704 105.821 136.656 110.877 117.8C115.935 98.939 129.092 82.2106 149.785 69.9066C161.029 91.2197 162.819 112.297 157.268 131.095Z" fill="#184D77" stroke="#FEE9A3"/>
<path d="M113.909 200.322C148.351 260.974 131.86 322.353 71.7316 357.734C36.5566 294.03 54.1431 237.301 113.909 200.322Z" fill="#184D77"/>
<path d="M70.7257 268.903C76.2737 250.116 89.1666 233.565 107.366 221.316C119.148 242.294 122.173 263.342 117.116 282.198C112.059 301.059 98.9008 317.787 78.2084 330.091C66.9645 308.778 65.1741 287.701 70.7257 268.903Z" fill="#184D77" stroke="#FEE9A3"/>
<path d="M114.325 200.085C174.975 165.641 236.353 182.132 271.732 242.261C210.69 278.171 149.312 261.68 114.325 200.085Z" fill="#184D77"/>
<path d="M-43.7315 157.735C16.9191 123.29 78.2966 139.782 113.676 199.911C52.6334 235.82 -8.74409 219.329 -43.7315 157.735Z" fill="#184D77"/>
<path d="M186.876 244.334C168.089 238.786 151.539 225.893 139.29 207.693C160.269 195.91 181.316 192.886 200.172 197.942C219.032 202.999 235.76 216.157 248.063 236.85C226.75 248.094 205.674 249.885 186.876 244.334Z" fill="#184D77" stroke="#FEE9A3"/>
<path d="M28.8185 201.983C10.0321 196.435 -6.51801 183.542 -18.7667 165.342C2.21144 153.559 23.2586 150.535 42.1146 155.591C60.9748 160.648 77.7025 173.806 90.0058 194.499C68.6931 205.743 47.6167 207.534 28.8185 201.983Z" fill="#184D77" stroke="#FEE9A3"/>
<ellipse cx="135.222" cy="124.31" rx="8.6426" ry="8.64287" transform="rotate(15 135.222 124.31)" fill="#FEE9A3"/>
<ellipse cx="193.672" cy="222.291" rx="8.6426" ry="8.64287" transform="rotate(15 193.672 222.291)" fill="#FEE9A3"/>
<ellipse cx="93.4661" cy="280.146" rx="8.6426" ry="8.64287" transform="rotate(15 93.4661 280.146)" fill="#FEE9A3"/>
<ellipse cx="35.6151" cy="179.94" rx="8.6426" ry="8.64287" transform="rotate(15 35.6151 179.94)" fill="#FEE9A3"/>
</g>
<g opacity="0.7">
<path d="M178.994 305.019C168.095 302.621 162.562 294.088 164.793 283.151C176.133 285.789 180.996 293.953 178.994 305.019Z" fill="#184D77"/>
<path d="M179.052 305.109C189.952 307.507 195.484 316.039 193.254 326.976C181.913 324.338 177.051 316.174 179.052 305.109Z" fill="#184D77"/>
<path d="M179.069 305.034C181.467 294.135 189.999 288.602 200.936 290.833C198.671 301.936 190.139 307.468 179.069 305.034Z" fill="#184D77"/>
<path d="M157.112 319.293C159.51 308.394 168.042 302.862 178.979 305.092C176.713 316.195 168.181 321.727 157.112 319.293Z" fill="#184D77"/>
</g>
<g opacity="0.7">
<path d="M56.1927 99.9144C45.2936 97.5162 39.7609 88.9839 41.9914 78.0466C53.3319 80.6844 58.1943 88.849 56.1927 99.9144Z" fill="#184D77"/>
<path d="M56.2509 100.004C67.15 102.402 72.6827 110.935 70.4522 121.872C59.1117 119.234 54.2493 111.07 56.2509 100.004Z" fill="#184D77"/>
<path d="M56.2676 99.9296C58.6654 89.0304 67.1973 83.498 78.1346 85.7289C75.8692 96.8315 67.3372 102.364 56.2676 99.9296Z" fill="#184D77"/>
<path d="M34.3103 114.189C36.7081 103.29 45.24 97.7573 56.1773 99.9881C53.9119 111.091 45.3799 116.623 34.3103 114.189Z" fill="#184D77"/>
</g>
<ellipse opacity="0.7" cx="203.629" cy="142.853" rx="9.79799" ry="9.79797" fill="#F7B750"/>
<ellipse opacity="0.7" cx="14.2003" cy="257.816" rx="9.79799" ry="9.79797" fill="#F7B750"/>
</svg>
