<svg width="313" height="400" viewBox="0 0 313 400" fill="none" xmlns="http://www.w3.org/2000/svg">
<g opacity="0.9">
<path d="M199.916 199.676C234.358 139.024 217.866 77.6449 157.738 42.264C122.563 105.968 140.15 162.697 199.916 199.676Z" fill="#184D77"/>
<path d="M156.732 131.095C162.28 149.882 175.173 166.433 193.373 178.682C205.155 157.704 208.179 136.656 203.123 117.8C198.065 98.939 184.907 82.2106 164.215 69.9066C152.971 91.2197 151.181 112.297 156.732 131.095Z" fill="#184D77" stroke="#FEE9A3"/>
<path d="M200.091 200.322C165.648 260.974 182.14 322.353 242.268 357.734C277.443 294.03 259.857 237.301 200.091 200.322Z" fill="#184D77"/>
<path d="M243.274 268.903C237.726 250.116 224.833 233.565 206.633 221.316C194.851 242.294 191.827 263.342 196.884 282.198C201.941 301.059 215.099 317.787 235.791 330.091C247.035 308.778 248.826 287.701 243.274 268.903Z" fill="#184D77" stroke="#FEE9A3"/>
<path d="M199.675 200.085C139.024 165.641 77.647 182.132 42.268 242.261C103.31 278.171 164.688 261.68 199.675 200.085Z" fill="#184D77"/>
<path d="M357.731 157.735C297.081 123.29 235.703 139.782 200.324 199.911C261.366 235.82 322.744 219.329 357.731 157.735Z" fill="#184D77"/>
<path d="M127.124 244.334C145.911 238.786 162.461 225.893 174.709 207.693C153.731 195.91 132.684 192.886 113.828 197.942C94.9678 202.999 78.2402 216.157 65.9368 236.85C87.2495 248.094 108.326 249.885 127.124 244.334Z" fill="#184D77" stroke="#FEE9A3"/>
<path d="M285.181 201.983C303.968 196.435 320.518 183.542 332.766 165.342C311.788 153.559 290.741 150.535 271.885 155.591C253.025 160.648 236.297 173.806 223.994 194.499C245.307 205.743 266.383 207.534 285.181 201.983Z" fill="#184D77" stroke="#FEE9A3"/>
<ellipse cx="8.6426" cy="8.64287" rx="8.6426" ry="8.64287" transform="matrix(-0.965926 0.258819 0.258819 0.965926 184.888 113.725)" fill="#FEE9A3"/>
<ellipse cx="8.6426" cy="8.64287" rx="8.6426" ry="8.64287" transform="matrix(-0.965926 0.258819 0.258819 0.965926 126.439 211.706)" fill="#FEE9A3"/>
<ellipse cx="8.6426" cy="8.64287" rx="8.6426" ry="8.64287" transform="matrix(-0.965926 0.258819 0.258819 0.965926 226.645 269.561)" fill="#FEE9A3"/>
<ellipse cx="8.6426" cy="8.64287" rx="8.6426" ry="8.64287" transform="matrix(-0.965926 0.258819 0.258819 0.965926 284.496 169.355)" fill="#FEE9A3"/>
</g>
<g opacity="0.7">
<path d="M135.005 305.019C145.904 302.621 151.437 294.088 149.207 283.151C137.866 285.789 133.004 293.953 135.005 305.019Z" fill="#184D77"/>
<path d="M134.947 305.109C124.048 307.507 118.515 316.039 120.746 326.976C132.086 324.338 136.949 316.174 134.947 305.109Z" fill="#184D77"/>
<path d="M134.93 305.034C132.533 294.135 124.001 288.602 113.063 290.833C115.329 301.936 123.861 307.468 134.93 305.034Z" fill="#184D77"/>
<path d="M156.888 319.293C154.49 308.394 145.958 302.862 135.021 305.092C137.286 316.195 145.818 321.727 156.888 319.293Z" fill="#184D77"/>
</g>
<g opacity="0.7">
<path d="M257.807 99.9144C268.706 97.5162 274.239 88.984 272.008 78.0466C260.668 80.6844 255.805 88.849 257.807 99.9144Z" fill="#184D77"/>
<path d="M257.749 100.004C246.849 102.402 241.317 110.935 243.547 121.872C254.888 119.234 259.75 111.07 257.749 100.004Z" fill="#184D77"/>
<path d="M257.732 99.9296C255.334 89.0304 246.802 83.498 235.865 85.7289C238.13 96.8315 246.662 102.364 257.732 99.9296Z" fill="#184D77"/>
<path d="M279.689 114.189C277.291 103.29 268.759 97.7573 257.822 99.9881C260.088 111.091 268.62 116.623 279.689 114.189Z" fill="#184D77"/>
</g>
<ellipse opacity="0.7" cx="9.79799" cy="9.79797" rx="9.79799" ry="9.79797" transform="matrix(-1 0 0 1 120.169 133.055)" fill="#F7B750"/>
<ellipse opacity="0.7" cx="9.79799" cy="9.79797" rx="9.79799" ry="9.79797" transform="matrix(-1 0 0 1 309.597 248.018)" fill="#F7B750"/>
</svg>
