<svg width="400" height="400" viewBox="0 0 400 400" fill="none" xmlns="http://www.w3.org/2000/svg">
<g opacity="0.9">
<path d="M200.084 200.324C165.642 260.976 182.133 322.355 242.261 357.736C277.436 294.032 259.85 237.303 200.084 200.324Z" fill="#184D77"/>
<path d="M206.627 221.318C194.845 242.296 191.82 263.344 196.877 282.2C201.934 301.061 215.092 317.789 235.785 330.093C247.028 308.78 248.819 287.703 243.267 268.905C237.719 250.118 224.826 233.567 206.627 221.318Z" fill="#184D77" stroke="#FEE9A3"/>
<path d="M199.909 199.678C234.351 139.026 217.86 77.6466 157.731 42.2656C122.556 105.97 140.143 162.699 199.909 199.678Z" fill="#184D77"/>
<path d="M193.366 178.684C205.148 157.706 208.172 136.658 203.116 117.802C198.058 98.9409 184.901 82.2126 164.208 69.9085C152.964 91.2217 151.174 112.299 156.725 131.097C162.274 149.884 175.166 166.435 193.366 178.684Z" fill="#184D77" stroke="#FEE9A3"/>
<path d="M200.324 199.915C260.975 234.359 322.353 217.868 357.732 157.739C296.689 121.829 235.312 138.32 200.324 199.915Z" fill="#184D77"/>
<path d="M42.2682 242.265C102.919 276.71 164.296 260.219 199.675 200.089C138.633 164.18 77.2557 180.671 42.2682 242.265Z" fill="#184D77"/>
<path d="M225.29 192.307C246.268 204.09 267.315 207.114 286.171 202.058C305.032 197.001 321.759 183.843 334.063 163.15C312.75 151.906 291.674 150.115 272.875 155.666C254.089 161.214 237.539 174.107 225.29 192.307Z" fill="#184D77" stroke="#FEE9A3"/>
<path d="M67.2331 234.658C88.2112 246.441 109.258 249.465 128.114 244.409C146.975 239.352 163.702 226.194 176.006 205.501C154.693 194.257 133.616 192.466 114.818 198.017C96.0318 203.565 79.4817 216.458 67.2331 234.658Z" fill="#184D77" stroke="#FEE9A3"/>
<ellipse cx="8.6426" cy="8.64287" rx="8.6426" ry="8.64287" transform="matrix(0.965926 -0.258819 -0.258819 -0.965926 215.111 286.275)" fill="#FEE9A3"/>
<ellipse cx="8.6426" cy="8.64287" rx="8.6426" ry="8.64287" transform="matrix(0.965926 -0.258819 -0.258819 -0.965926 273.56 188.294)" fill="#FEE9A3"/>
<ellipse cx="8.6426" cy="8.64287" rx="8.6426" ry="8.64287" transform="matrix(0.965926 -0.258819 -0.258819 -0.965926 173.355 130.439)" fill="#FEE9A3"/>
<ellipse cx="8.6426" cy="8.64287" rx="8.6426" ry="8.64287" transform="matrix(0.965926 -0.258819 -0.258819 -0.965926 115.504 230.645)" fill="#FEE9A3"/>
</g>
<g opacity="0.7">
<path d="M264.994 94.9813C254.095 97.3795 248.562 105.912 250.793 116.849C262.133 114.211 266.996 106.047 264.994 94.9813Z" fill="#184D77"/>
<path d="M265.052 94.8914C275.952 92.4932 281.484 83.961 279.254 73.0236C267.913 75.6615 263.051 83.826 265.052 94.8914Z" fill="#184D77"/>
<path d="M265.069 94.966C267.467 105.865 275.999 111.398 286.936 109.167C284.671 98.0641 276.139 92.5317 265.069 94.966Z" fill="#184D77"/>
<path d="M243.112 80.7068C245.51 91.606 254.042 97.1384 264.979 94.9076C262.713 83.8049 254.181 78.2725 243.112 80.7068Z" fill="#184D77"/>
</g>
<g opacity="0.7">
<path d="M142.193 300.086C131.294 302.484 125.761 311.016 127.991 321.953C139.332 319.316 144.194 311.151 142.193 300.086Z" fill="#184D77"/>
<path d="M142.251 299.996C153.15 297.598 158.683 289.065 156.452 278.128C145.112 280.766 140.249 288.93 142.251 299.996Z" fill="#184D77"/>
<path d="M142.268 300.07C144.665 310.97 153.197 316.502 164.135 314.271C161.869 303.168 153.337 297.636 142.268 300.07Z" fill="#184D77"/>
<path d="M120.31 285.811C122.708 296.71 131.24 302.243 142.177 300.012C139.912 288.909 131.38 283.377 120.31 285.811Z" fill="#184D77"/>
</g>
<ellipse opacity="0.7" cx="9.79799" cy="9.79797" rx="9.79799" ry="9.79797" transform="matrix(1 0 0 -1 279.831 266.945)" fill="#F7B750"/>
<ellipse opacity="0.7" cx="9.79799" cy="9.79797" rx="9.79799" ry="9.79797" transform="matrix(1 0 0 -1 90.4023 151.982)" fill="#F7B750"/>
</svg>
