<svg width="33" height="38" viewBox="0 0 33 38" fill="none" xmlns="http://www.w3.org/2000/svg">
<path d="M32.9999 8.74468V37.9999H0.843994V0H24.1405L28.2669 4.07305L32.9999 8.74468Z" fill="#B12A27"/>
<path d="M15.4219 2.54541H0V9.35632H15.4219V2.54541Z" fill="#F2F2F2"/>
<path d="M5.53169 4.77794C5.46364 4.61569 5.37295 4.47022 5.24828 4.34717C5.12361 4.22412 4.97052 4.1234 4.79479 4.05623C4.61343 3.9835 4.40935 3.94995 4.18265 3.94995H2.48779V8.26911H3.34372V6.64098H4.18265C4.40935 6.64098 4.61343 6.60743 4.79479 6.53469C4.97052 6.46753 5.12354 6.36688 5.24828 6.24376C5.37303 6.1207 5.46371 5.9808 5.53169 5.81299C5.59402 5.65075 5.62808 5.4773 5.62808 5.29828C5.62801 5.11363 5.59402 4.94018 5.53169 4.77794ZM4.60771 5.72341C4.49432 5.82969 4.33566 5.88565 4.14294 5.88565H3.34372V4.69956H4.14294C4.33566 4.69956 4.4944 4.75552 4.60771 4.86737C4.71539 4.97365 4.77208 5.11912 4.77208 5.29813C4.77216 5.47166 4.71546 5.61713 4.60771 5.72341Z" fill="#B12A27"/>
<path d="M9.62437 5.62277C9.61873 5.47173 9.61302 5.33747 9.59603 5.21434C9.57903 5.09121 9.55068 4.97937 9.51098 4.87308C9.47128 4.77237 9.4203 4.67165 9.35225 4.58215C9.19923 4.36394 9.01215 4.2017 8.80244 4.10099C8.58701 4.00027 8.33195 3.94995 8.03156 3.94995H6.45581V8.26911H8.03156C8.33195 8.26911 8.58701 8.21879 8.80244 8.11808C9.01215 8.01736 9.19923 7.85512 9.35225 7.63692C9.4203 7.54741 9.47128 7.44669 9.51098 7.34598C9.55068 7.2397 9.57903 7.12778 9.59603 7.00472C9.61302 6.88167 9.61866 6.74733 9.62437 6.5963C9.63001 6.45083 9.63001 6.28858 9.63001 6.10957C9.63001 5.93055 9.63001 5.76824 9.62437 5.62277ZM8.76845 6.54597C8.76845 6.67467 8.7571 6.77539 8.74574 6.86489C8.73439 6.94883 8.71739 7.02713 8.69476 7.0831C8.67213 7.14462 8.63807 7.20058 8.59844 7.2509C8.4567 7.42992 8.24135 7.51386 7.95794 7.51386H7.30609V4.69963H7.95794C8.24135 4.69963 8.45677 4.78914 8.59844 4.96816C8.63814 5.01848 8.67213 5.06887 8.69476 5.1304C8.71739 5.19193 8.73446 5.26466 8.74574 5.35417C8.7571 5.43811 8.76845 5.54439 8.76845 5.66745C8.77409 5.79058 8.77409 5.94161 8.77409 6.10942C8.77416 6.27738 8.77416 6.42285 8.76845 6.54597Z" fill="#B12A27"/>
<path d="M13.2802 4.69963V3.94995H10.395V8.26911H11.2509V6.51799H12.9798V5.76267H11.2509V4.69963H13.2802Z" fill="#B12A27"/>
<path d="M5.53169 4.77794C5.46364 4.61569 5.37295 4.47022 5.24828 4.34717C5.12361 4.22412 4.97052 4.1234 4.79479 4.05623C4.61343 3.9835 4.40935 3.94995 4.18265 3.94995H2.48779V8.26911H3.34372V6.64098H4.18265C4.40935 6.64098 4.61343 6.60743 4.79479 6.53469C4.97052 6.46753 5.12354 6.36688 5.24828 6.24376C5.37303 6.1207 5.46371 5.9808 5.53169 5.81299C5.59402 5.65075 5.62808 5.4773 5.62808 5.29828C5.62801 5.11363 5.59402 4.94018 5.53169 4.77794ZM4.60771 5.72341C4.49432 5.82969 4.33566 5.88565 4.14294 5.88565H3.34372V4.69956H4.14294C4.33566 4.69956 4.4944 4.75552 4.60771 4.86737C4.71539 4.97365 4.77208 5.11912 4.77208 5.29813C4.77216 5.47166 4.71546 5.61713 4.60771 5.72341Z" fill="#B12A27"/>
<path opacity="0.08" d="M32.9999 8.74487V38H0.843994V31.1408L15.8762 16.3035L16.7661 15.4251L17.2592 14.9383L18.0811 14.1271L19.0561 13.1647L28.2669 4.07324L32.9999 8.74487Z" fill="#040000"/>
<path d="M33.0001 8.74564H24.1396V0L33.0001 8.74564Z" fill="#771B1B"/>
<path d="M28.409 27.5101C28.2219 27.1856 27.9668 26.8779 27.6494 26.5981C27.3888 26.3632 27.0826 26.145 26.7368 25.9435C25.3424 25.1323 23.3529 24.7407 20.6491 24.7407H20.3771C20.2297 24.6064 20.0767 24.4721 19.9179 24.3322C18.892 23.4203 18.0758 22.43 17.4409 21.3279C18.6879 18.6144 19.2831 16.1974 19.2094 14.1385C19.198 13.7916 19.1471 13.4671 19.0564 13.165C18.9204 12.6783 18.6936 12.2474 18.3762 11.895C18.3705 11.8894 18.3705 11.8894 18.3648 11.8837C17.8604 11.3243 17.1575 11.0054 16.4433 11.0054C15.7234 11.0054 15.0602 11.3131 14.5784 11.8782C14.1023 12.4376 13.8472 13.2042 13.8359 14.1049C13.8189 15.4812 13.9322 16.7848 14.1703 17.9876C14.193 18.0828 14.21 18.1779 14.2327 18.2729C14.4707 19.364 14.8222 20.3989 15.2756 21.3613C14.7428 22.4299 14.2043 23.353 13.8302 23.9796C13.5468 24.4552 13.235 24.9532 12.9119 25.4511C11.4552 25.7085 10.2195 26.0218 9.14254 26.4134C7.68582 26.9338 6.51815 27.6051 5.67922 28.4051C5.13505 28.9198 4.7666 29.4682 4.58524 30.0388C4.39252 30.6263 4.40387 31.2137 4.61922 31.7396C4.81758 32.2264 5.17467 32.6348 5.65087 32.9145C5.76426 32.9817 5.88329 33.0376 6.00797 33.088C6.37077 33.2334 6.76749 33.3117 7.18128 33.3117C8.13924 33.3117 9.12547 32.9033 9.95869 32.1704C11.5118 30.7997 13.1159 28.5954 14.0625 27.2022C14.839 27.0847 15.6836 26.984 16.6359 26.8833C17.7582 26.7714 18.7502 26.7043 19.6515 26.6707C19.9292 26.9168 20.1956 27.1518 20.4507 27.3756C21.8678 28.6232 22.9447 29.524 23.9196 30.1562C23.9196 30.1618 23.9253 30.1618 23.931 30.1618C24.3164 30.4135 24.6849 30.6205 25.0533 30.7884C25.4671 30.9786 25.8865 31.0793 26.3173 31.0793C26.8615 31.0793 27.3716 30.9171 27.7968 30.6206C28.2275 30.3129 28.5393 29.8709 28.681 29.373C28.8454 28.7745 28.7491 28.1087 28.409 27.5101ZM15.8765 16.3037C15.7971 15.6099 15.7631 14.8882 15.7744 14.1273C15.7858 13.4056 16.0522 12.9188 16.4433 12.9188C16.738 12.9188 17.0498 13.1818 17.1914 13.6853C17.2311 13.8363 17.2595 14.0097 17.2651 14.2055C17.2765 14.4405 17.2708 14.6867 17.2595 14.9384C17.2255 15.649 17.1008 16.4043 16.8854 17.2156C16.755 17.7359 16.585 18.2786 16.3753 18.8436C16.1372 18.0493 15.9671 17.2044 15.8765 16.3037ZM6.42183 31.0291C6.32543 30.7942 6.43318 30.341 7.0227 29.7815C7.92396 28.9311 9.33534 28.2597 11.3022 27.7506C10.9282 28.2541 10.5597 28.7129 10.2026 29.1325C9.65844 29.7815 9.13698 30.3298 8.66649 30.7438C8.26406 31.1018 7.82192 31.3256 7.4025 31.3816C7.32881 31.3928 7.25512 31.3984 7.18143 31.3984C6.81291 31.3985 6.51251 31.253 6.42183 31.0291ZM15.4797 25.0819L15.5194 25.0204L15.457 25.0316C15.4684 25.0036 15.4854 24.9756 15.5024 24.9533C15.7404 24.5561 16.0408 24.0469 16.3639 23.4595L16.3923 23.521L16.466 23.37C16.704 23.7057 16.9648 24.0358 17.2369 24.3547C17.3672 24.5057 17.5033 24.6512 17.6393 24.7966L17.5486 24.8022L17.6279 24.8749C17.3955 24.8917 17.1518 24.9141 16.908 24.9365C16.755 24.9532 16.5963 24.9644 16.4376 24.9812C16.1089 25.0148 15.7858 25.0484 15.4797 25.0819ZM25.0193 28.573C24.3448 28.1478 23.591 27.5492 22.6614 26.7491C23.9821 26.8834 25.0193 27.1687 25.7562 27.5939C26.0793 27.7786 26.323 27.9688 26.4874 28.1534C26.7595 28.4387 26.8559 28.6961 26.8048 28.8695C26.7595 29.043 26.5611 29.1605 26.3173 29.1605C26.1756 29.1605 26.0283 29.1269 25.8752 29.0542C25.6144 28.9311 25.3424 28.78 25.0533 28.5954C25.042 28.5954 25.0307 28.5842 25.0193 28.573Z" fill="#F2F2F2"/>
</svg>
