<?xml version="1.0" encoding="UTF-8"?>
<svg version="1.1" xmlns="http://www.w3.org/2000/svg" width="512" height="512">
<path d="M0 0 C11.82203885 8.04351964 22.63635803 17.1553449 33.13385773 26.84370232 C34.26116601 27.87758748 34.26116601 27.87758748 35.41124821 28.93235922 C86.14467658 75.8338186 98.01992938 130.53306814 100.71588898 196.68354607 C103.43870586 266.12191575 100.07857599 335.9698857 94.73641083 405.21394531 C94.62695505 406.63327133 94.51825636 408.05265596 94.4103463 409.47210033 C94.0628276 414.03962342 93.69362895 418.60494853 93.31169891 423.16975212 C93.22491515 424.28049801 93.13813138 425.3912439 93.0487178 426.53564876 C92.14847046 436.76646698 90.16580302 446.65691374 85.44635773 455.84370232 C85.09976105 456.51925163 84.75316437 457.19480095 84.39606476 457.89082146 C76.66814373 472.29721389 63.80615377 482.00120856 48.41120148 487.12495232 C44.32515331 488.24114108 40.50335233 488.90596179 36.262887 488.91542339 C35.33149892 488.91988124 34.40011085 488.92433908 33.44049889 488.92893201 C32.42572958 488.92874765 31.41096027 488.92856329 30.36544037 488.92837334 C29.28073769 488.93205002 28.196035 488.93572671 27.07846254 488.93951482 C23.43684795 488.95054449 19.79526191 488.95439433 16.15363312 488.95820427 C13.54510152 488.96446955 10.93657081 488.9711164 8.32804108 488.97811699 C0.49462025 488.99785589 -7.33880182 489.00794521 -15.1722413 489.01684478 C-18.86582338 489.02123267 -22.55940404 489.02659825 -26.252985 489.03183365 C-38.53994035 489.0488448 -50.82689482 489.06333679 -63.11386013 489.07058239 C-66.30057463 489.07249213 -69.48728913 489.07441248 -72.6740036 489.07636833 C-73.86199504 489.07709394 -73.86199504 489.07709394 -75.0739863 489.07783421 C-87.89061053 489.08612637 -100.70714119 489.11144999 -113.52372461 489.14394901 C-126.69763693 489.17708026 -139.87150181 489.1950367 -153.04545599 489.19822663 C-160.43584184 489.20038633 -167.82609129 489.20905523 -175.21643639 489.23468781 C-182.17433476 489.25876538 -189.13198473 489.26218252 -196.08991623 489.25192642 C-198.63672641 489.25143208 -201.18354883 489.25772238 -203.73032188 489.27148247 C-226.36393687 489.38687849 -243.4074476 486.68062032 -260.51457977 470.46088982 C-264.37951104 466.27896103 -267.2439241 461.74877491 -269.99114227 456.78120232 C-270.58862274 455.78346794 -270.58862274 455.78346794 -271.19817352 454.76557732 C-277.72730905 443.12562034 -277.40538109 429.92585933 -277.28411102 417.01167107 C-277.2785022 415.23663508 -277.2742382 413.46159438 -277.27124786 411.68655205 C-277.25990022 407.05876717 -277.23052229 402.43127356 -277.19713593 397.80360222 C-277.16621522 393.06375377 -277.15269594 388.32385735 -277.13762665 383.58393669 C-277.10564092 374.31623196 -277.05456964 365.04874154 -276.99114227 355.78120232 C-277.95617676 355.78890648 -278.92121124 355.79661064 -279.9154892 355.80454826 C-281.81136276 355.81353645 -281.81136276 355.81353645 -283.7455368 355.82270622 C-284.99932129 355.83041039 -286.25310577 355.83811455 -287.54488373 355.84605217 C-298.19056058 355.64572751 -306.44812185 351.17595265 -313.88957977 343.93354607 C-322.360821 334.94402215 -324.13817173 325.69571747 -324.15227509 313.73359489 C-324.15723999 312.72480278 -324.1622049 311.71601067 -324.16732025 310.67664909 C-324.18191103 307.34300361 -324.18873929 304.00940573 -324.19426727 300.67573357 C-324.20002191 298.35271008 -324.2057796 296.0296866 -324.21154022 293.70666313 C-324.22204189 288.83526705 -324.22788981 283.96388742 -324.23137665 279.09248161 C-324.23685508 272.86634348 -324.26087295 266.64042472 -324.2893486 260.41435528 C-324.30802209 255.61436145 -324.31318313 250.81441993 -324.31471252 246.01439285 C-324.31772968 243.71999921 -324.32572635 241.42560629 -324.33889771 239.13124847 C-324.3560541 235.91259274 -324.35405426 232.69446597 -324.34758759 229.47578239 C-324.35680237 228.53776283 -324.36601715 227.59974327 -324.37551117 226.63329887 C-324.30503208 215.37002643 -320.92374116 205.99630591 -313.10442352 197.80463982 C-304.47334085 189.83487782 -295.39629231 186.65294343 -283.71770477 186.73432732 C-282.45780731 186.74109489 -281.19790985 186.74786247 -279.89983368 186.75483513 C-278.46003143 186.76788689 -278.46003143 186.76788689 -276.99114227 186.78120232 C-276.99390765 185.98404965 -276.99667303 185.18689699 -276.99952221 184.36558819 C-277.0659171 164.92507643 -277.11548839 145.48458746 -277.14657879 126.04398632 C-277.16201539 116.64246664 -277.18304325 107.24102287 -277.21746063 97.83955193 C-277.24746155 89.64054297 -277.26674056 81.44158903 -277.27340776 73.24252671 C-277.27730198 68.9054328 -277.28638629 64.56849619 -277.30833244 60.23145294 C-277.32886697 56.13978697 -277.33494223 52.04834141 -277.33046532 47.9566288 C-277.331283 46.46401136 -277.33714683 44.97138567 -277.3487587 43.47881317 C-277.49052268 24.29741293 -272.69555758 7.97156539 -259.41106415 -6.13505745 C-206.2016832 -59.04499952 -55.42103781 -36.55920146 0 0 Z " fill="#EDECEC" transform="translate(371.9911422729492,23.21879768371582)"/>
<path d="M0 0 C1.30031625 -0.00115313 2.60063249 -0.00230625 3.94035226 -0.00349432 C7.53433204 -0.00632916 11.12818285 0.00339539 14.72213995 0.01530731 C18.60435216 0.02601672 22.48656513 0.02515655 26.36878967 0.02592468 C34.85035775 0.0298611 43.33185237 0.04882155 51.81339049 0.07067418 C57.1135385 0.08422179 62.41368958 0.09443153 67.71384621 0.1039257 C82.4011718 0.13066016 97.08848065 0.16052223 111.77576733 0.20401859 C113.1844424 0.20818865 113.1844424 0.20818865 114.62157555 0.21244296 C116.52521854 0.21809311 118.42886151 0.22374621 120.33250447 0.22940225 C121.27741743 0.23220644 122.22233039 0.23501062 123.19587708 0.23789978 C124.61498517 0.24211488 124.61498517 0.24211488 126.06276212 0.24641513 C141.38884124 0.29132436 156.71485439 0.31282601 172.04099175 0.32396121 C187.79261701 0.33571007 203.54411487 0.36609255 219.29566842 0.4153747 C228.13297724 0.44261578 236.97014596 0.46208467 245.80750084 0.46121407 C253.33303211 0.46058719 260.85828373 0.47718866 268.38371994 0.51582731 C272.21934108 0.53502358 276.05454272 0.54638701 279.89020729 0.53587151 C284.05888679 0.52468029 288.22644122 0.55237217 292.39501953 0.58349609 C294.19185245 0.56953256 294.19185245 0.56953256 296.02498502 0.55528694 C307.4809988 0.7037501 317.74396003 3.88637246 326.07746887 11.99009705 C333.65473378 20.77422471 336.31353737 29.22613331 336.32136536 40.62510681 C336.32968887 41.65848679 336.33801239 42.69186676 336.34658813 43.75656128 C336.3706511 47.16777844 336.37945748 50.57880404 336.38606262 53.99009705 C336.39503439 56.3717657 336.40415634 58.75343379 336.41342163 61.13510132 C336.429906 66.12917955 336.43761029 71.12319082 336.44050598 76.11729431 C336.44587758 82.49013574 336.48351041 88.86233966 336.52925014 95.23500156 C336.55912517 100.15694422 336.56623188 105.07873562 336.56723213 110.00076103 C336.57141657 112.34851425 336.5837787 114.69626867 336.60474968 117.04393196 C336.7342616 132.80173273 336.82211908 146.40036867 325.11653137 158.3690033 C315.48075743 166.93015561 305.51014474 168.68397297 292.90968323 168.66183472 C291.60851256 168.67130381 290.30734189 168.6807729 288.9667418 168.69052893 C285.3750429 168.71620461 281.78351175 168.72348078 278.19173217 168.72756684 C274.3101598 168.73519825 270.42868988 168.75993783 266.54718018 168.78239441 C258.95004016 168.82352258 251.35293018 168.8484797 243.75570551 168.86737191 C237.57751801 168.88294531 231.39937139 168.90393799 225.22121429 168.92875862 C223.90066315 168.9340443 223.90066315 168.9340443 222.55343421 168.93943675 C220.7647595 168.94660587 218.97608481 168.95378121 217.18741015 168.96096272 C200.42278734 169.02751245 183.65815049 169.07503309 166.89344981 169.11658288 C151.57379676 169.15511397 136.25433749 169.21656229 120.93481049 169.28901391 C105.18777592 169.36329665 89.44075123 169.42258271 73.69359899 169.46552283 C64.85962472 169.48985857 56.02576391 169.51996014 47.19187164 169.56561089 C39.67014379 169.60429806 32.14853204 169.62866686 24.6267046 169.63490569 C20.79309384 169.6384646 16.95979133 169.6483527 13.1262722 169.67601204 C8.96008287 169.70586263 4.7944828 169.70405574 0.62818909 169.69943237 C-0.5690174 169.71292833 -1.76622389 169.72642428 -2.99970937 169.74032921 C-15.98036908 169.66770301 -26.55282436 166.46959368 -35.88346863 157.38853455 C-44.35470985 148.39901063 -46.13206059 139.15070595 -46.14616394 127.18858337 C-46.15112885 126.17979126 -46.15609375 125.17099915 -46.16120911 124.13163757 C-46.17579989 120.79799208 -46.18262814 117.46439421 -46.18815613 114.13072205 C-46.19391076 111.80769856 -46.19966846 109.48467508 -46.20542908 107.16165161 C-46.21593074 102.29025553 -46.22177866 97.4188759 -46.2252655 92.54747009 C-46.23074394 86.32133196 -46.25476181 80.0954132 -46.28323746 73.86934376 C-46.30191094 69.06934993 -46.30707198 64.26940841 -46.30860138 59.46938133 C-46.31161853 57.17498769 -46.31961521 54.88059477 -46.33278656 52.58623695 C-46.34994296 49.36758122 -46.34794311 46.14945445 -46.34147644 42.93077087 C-46.35069122 41.99275131 -46.35990601 41.05473175 -46.36940002 40.08828735 C-46.29892093 28.82501491 -42.91763001 19.45129439 -35.09831238 11.2596283 C-24.67767384 1.63742768 -13.79320826 -0.07194159 0 0 Z " fill="#F15642" transform="translate(93.98503112792969,209.76380920410156)"/>
<path d="M0 0 C4.02151676 1.61196535 6.72515075 4.44574751 9.72003174 7.46606445 C10.28697966 8.0298924 10.85392759 8.59372034 11.43805575 9.17463398 C13.33751617 11.06611378 15.22974398 12.96466616 17.12207031 14.86328125 C18.48183428 16.22033545 19.84202343 17.57696375 21.2026062 18.93319702 C24.89703291 22.61849753 28.58509509 26.31010671 32.2717905 30.0031395 C36.12585622 33.86226191 39.98479139 37.71651004 43.84295654 41.5715332 C50.31948171 48.04441864 56.79177547 54.52151269 63.26171875 61.00097656 C70.75157514 68.50172668 78.24862192 75.99523204 85.74942708 83.48503208 C92.18200869 89.90855197 98.61070232 96.33594342 105.03613353 102.76661587 C108.87709362 106.61070063 112.71940795 110.45340557 116.56522369 114.29263306 C120.17793015 117.89958256 123.7857479 121.51135031 127.38977432 125.1269722 C128.71677592 126.45662885 130.04550192 127.78456699 131.37602615 129.1106987 C133.18463078 130.91387995 134.98702766 132.72303966 136.78790283 134.53393555 C137.58923641 135.32857696 137.58923641 135.32857696 138.40675855 136.13927174 C142 139.7716995 142 139.7716995 142 142 C126.52671534 142.09364717 111.05345202 142.16407873 95.57995033 142.20724869 C88.39451216 142.22783051 81.20925057 142.25586658 74.02392578 142.30175781 C67.75756244 142.34176057 61.49132706 142.36746462 55.22483957 142.37635398 C51.90998159 142.38154622 48.59557263 142.39578953 45.28081131 142.42292023 C41.57061561 142.45207225 37.86117121 142.45595089 34.15087891 142.45410156 C33.06474304 142.46848267 31.97860718 142.48286377 30.85955811 142.49768066 C22.42434578 142.45236085 13.77298402 140.67582794 7.36745644 134.71300888 C0.97985861 126.71128282 -0.87928002 118.52587036 -0.68115234 108.53027344 C-0.6820285 107.34833908 -0.68290466 106.16640472 -0.68380737 104.94865417 C-0.67966408 101.08486265 -0.633162 97.22285907 -0.5859375 93.359375 C-0.57137466 90.66368588 -0.56590366 87.96799835 -0.56021118 85.27227783 C-0.5416606 78.92937566 -0.49255915 72.58710378 -0.43211424 66.24447751 C-0.36474108 59.0158894 -0.3319833 51.78726909 -0.30194163 44.5584445 C-0.23944906 29.70529057 -0.13410815 14.85268712 0 0 Z " fill="#F15945" transform="translate(322,0)"/>
<path d="M0 0 C4.95 0 9.9 0 15 0 C19.61880501 9.12170525 24.03074673 18.28126508 28.1875 27.625 C28.74111673 28.86418217 29.29474657 30.10335847 29.84838867 31.3425293 C35.71227585 44.49829363 41.37449717 57.74087238 47 71 C46.9285376 69.94385498 46.8570752 68.88770996 46.78344727 67.79956055 C45.88582056 53.46784698 45.88499038 39.16744205 45.9375 24.8125 C45.94252966 22.39388114 45.94708995 19.97526127 45.95117188 17.55664062 C45.96205064 11.70440122 45.97923275 5.85221232 46 0 C50.95 0 55.9 0 61 0 C61 33.66 61 67.32 61 102 C56.05 102 51.1 102 46 102 C44.36134164 98.49012729 42.72271387 94.98024815 41.08544922 91.46972656 C39.71101414 88.52304005 38.33482962 85.5771796 36.95751953 82.63183594 C20.26817913 46.91211866 20.26817913 46.91211866 14 29 C14.07105453 29.55066132 14.14210907 30.10132263 14.21531677 30.66867065 C15.1058018 38.3689737 15.1284018 46.0153818 15.09765625 53.7578125 C15.09578678 55.15599517 15.09436538 56.5541785 15.09336853 57.95236206 C15.08958498 61.59861114 15.0797912 65.24481917 15.06866455 68.89105225 C15.05836 72.62527919 15.0538517 76.35951288 15.04882812 80.09375 C15.03816438 87.39585404 15.02060229 94.697916 15 102 C10.05 102 5.1 102 0 102 C0 68.34 0 34.68 0 0 Z " fill="#FEF9F8" transform="translate(206,243)"/>
<path d="M0 0 C40.56951872 0 40.56951872 0 49.55078125 8.4609375 C56.84563365 16.17212142 58.56412927 24.43353958 58.40234375 34.73950195 C58.03027739 44.23882109 55.84310685 52.09538207 49 59 C41.34514191 65.00470904 34.14957981 66.30026095 24.625 66.125 C21.44875 66.08375 18.2725 66.0425 15 66 C15 77.88 15 89.76 15 102 C10.05 102 5.1 102 0 102 C0 68.34 0 34.68 0 0 Z " fill="#FEFBFB" transform="translate(136,243)"/>
<path d="M0 0 C6.90736016 7.22133108 8.89013279 15.20583743 8.75 24.875 C4.13 24.875 -0.49 24.875 -5.25 24.875 C-5.641875 23.328125 -6.03375 21.78125 -6.4375 20.1875 C-7.81477525 15.57917618 -9.36585181 12.88521485 -13.25 9.875 C-18.46093481 8.13802173 -24.03907535 8.0282629 -29.1875 10 C-32.51430376 13.02436705 -34.04770056 16.00741743 -34.53756714 20.52975464 C-34.66393356 23.84491164 -34.69190363 27.14726389 -34.68359375 30.46484375 C-34.69145653 32.29167442 -34.69145653 32.29167442 -34.69947815 34.15541077 C-34.70589103 36.72656493 -34.70457091 39.29774846 -34.69604492 41.86889648 C-34.68753729 45.79529239 -34.71630616 49.72023215 -34.74804688 53.64648438 C-34.74965911 56.14843707 -34.74908094 58.65039232 -34.74609375 61.15234375 C-34.75732773 62.32232407 -34.76856171 63.49230438 -34.78013611 64.69773865 C-34.72385507 71.30479427 -34.2464747 75.52532561 -30.25 80.875 C-25.77672405 84.23459729 -19.55441508 83.44940859 -14.25 82.875 C-10.7618993 81.25122898 -8.98056684 80.21265759 -7.140625 76.84375 C-5.86962138 72.60707125 -5.78256613 68.46450387 -5.625 64.0625 C-5.58632813 63.17884766 -5.54765625 62.29519531 -5.5078125 61.38476562 C-5.41399216 59.21517028 -5.33092674 57.04511453 -5.25 54.875 C-10.53 54.875 -15.81 54.875 -21.25 54.875 C-21.25 50.585 -21.25 46.295 -21.25 41.875 C-11.02 41.875 -0.79 41.875 9.75 41.875 C9.84251177 46.39265789 9.92192869 50.9069494 9.96972656 55.42480469 C9.98967724 56.95714534 10.01684816 58.48941152 10.05175781 60.02148438 C10.30274527 71.33068397 9.38985115 81.03231511 2.3046875 90.33984375 C-4.06299374 96.62752899 -11.47333489 98.0545691 -20.0625 98.0625 C-20.74892578 98.07474609 -21.43535156 98.08699219 -22.14257812 98.09960938 C-29.4533722 98.12035903 -35.52799554 96.4672282 -41.3203125 91.92578125 C-46.89156171 86.00491924 -50.35468695 77.52724867 -50.41113281 69.46069336 C-50.42074036 68.35201401 -50.4303479 67.24333466 -50.44024658 66.10105896 C-50.44449646 64.90110794 -50.44874634 63.70115692 -50.453125 62.46484375 C-50.45882507 61.22763077 -50.46452515 59.99041779 -50.47039795 58.7157135 C-50.47985424 56.09214128 -50.48638442 53.46855714 -50.49023438 50.8449707 C-50.49676059 46.85286373 -50.53090572 42.86112689 -50.5625 38.86914062 C-50.56903393 36.31771138 -50.57428287 33.76627846 -50.578125 31.21484375 C-50.5966452 29.43617165 -50.5966452 29.43617165 -50.61553955 27.62156677 C-50.58977891 17.91555444 -49.3155466 9.35532505 -43.0625 1.6328125 C-31.13618643 -9.9336554 -12.93074027 -8.45471479 0 0 Z " fill="#FEFBFB" transform="translate(334.25,248.125)"/>
<path d="M0 0 C19.42168675 0 19.42168675 0 24 4 C28.87708622 9.48672199 28.59474241 15.24152254 28.3828125 22.390625 C27.9044122 26.90125642 27.08822092 30.58974535 24 34 C18 38 18 38 0 38 C0 25.46 0 12.92 0 0 Z " fill="#F15743" transform="translate(151,257)"/>
</svg>
