<svg width="40" height="40" viewBox="0 0 40 40" fill="none" xmlns="http://www.w3.org/2000/svg">
<path d="M20 5C22.9358 5 25.8057 5.87057 28.2468 7.50162C30.6878 9.13268 32.5904 11.451 33.7138 14.1633C34.8373 16.8756 35.1313 19.8602 34.5585 22.7396C33.9858 25.619 32.5721 28.2639 30.4961 30.3399C28.4202 32.4158 25.7753 33.8295 22.8959 34.4023C20.0165 34.975 17.0319 34.6811 14.3195 33.5576C11.6072 32.4341 9.28893 30.5315 7.65788 28.0905C6.02683 25.6495 5.15626 22.7796 5.15626 19.8438C5.16039 15.9082 6.72561 12.135 9.50846 9.3522C12.2913 6.56935 16.0645 5.00414 20 5ZM20 2.96875C16.6624 2.96875 13.3998 3.95845 10.6248 5.8127C7.84968 7.66695 5.68677 10.3025 4.40954 13.386C3.13231 16.4695 2.79813 19.8625 3.44926 23.1359C4.10038 26.4093 5.70757 29.4162 8.06758 31.7762C10.4276 34.1362 13.4344 35.7434 16.7079 36.3945C19.9813 37.0456 23.3743 36.7114 26.4578 35.4342C29.5413 34.157 32.1768 31.9941 34.0311 29.219C35.8853 26.4439 36.875 23.1813 36.875 19.8438C36.875 15.3682 35.0971 11.076 31.9324 7.91132C28.7678 4.74665 24.4755 2.96875 20 2.96875Z" fill="#063051"/>
<path d="M20.3375 5C20.9906 5 22.1438 6.14375 23.1281 8.65313C24.2875 11.6094 24.925 15.5844 24.925 19.8438C24.925 24.1031 24.3 28.0781 23.1281 31.0344C22.1438 33.5344 20.9938 34.6875 20.3375 34.6875C19.6813 34.6875 18.5312 33.5437 17.5469 31.0344C16.3906 28.0781 15.75 24.1031 15.75 19.8438C15.75 15.5844 16.375 11.6094 17.5469 8.65313C18.5344 6.14063 19.6875 5 20.3375 5ZM20.3375 2.96875C16.6813 2.96875 13.7188 10.525 13.7188 19.8438C13.7188 29.1625 16.6813 36.7188 20.3375 36.7188C23.9937 36.7188 26.9563 29.1625 26.9563 19.8438C26.9563 10.525 23.9937 2.96875 20.3375 2.96875Z" fill="#063051"/>
<path d="M5.5188 25.1156H35.1563" stroke="#063051" stroke-width="2.5" stroke-miterlimit="10"/>
<path d="M5.5188 14.5687H35.1563" stroke="#063051" stroke-width="2.5" stroke-miterlimit="10"/>
</svg>
