<svg width="30" height="22" viewBox="0 0 30 22" fill="none" xmlns="http://www.w3.org/2000/svg">
<path d="M29.8325 4.91765C29.8325 4.65882 29.44 2.58824 28.5241 1.68235C27.3465 0.388236 26.038 0.258824 25.3838 0.258824H25.253C21.1968 5.78516e-08 15.1779 0 15.0471 0C15.0471 0 8.89742 5.78516e-08 4.84124 0.258824H4.7104C4.05618 0.258824 2.74773 0.388236 1.57013 1.68235C0.654222 2.71765 0.261689 4.78824 0.261689 5.04706C0.261689 5.17647 0 7.50588 0 9.96471V12.1647C0 14.6235 0.261689 16.9529 0.261689 17.0824C0.261689 17.3412 0.654222 19.4118 1.57013 20.3176C2.61689 21.4824 3.92533 21.6118 4.7104 21.7412C4.84124 21.7412 4.97209 21.7412 5.10293 21.7412C7.45813 22 14.6546 22 14.9163 22C14.9163 22 21.0659 22 25.1221 21.7412H25.253C25.9072 21.6118 27.2156 21.4824 28.3932 20.3176C29.3091 19.2824 29.7017 17.2118 29.7017 16.9529C29.7017 16.8235 29.9634 14.4941 29.9634 12.0353V9.83529C30.0942 7.50588 29.8325 5.04706 29.8325 4.91765ZM20.15 11.2588L12.2994 15.4C12.1685 15.4 12.1685 15.5294 12.0377 15.5294C11.9068 15.5294 11.776 15.5294 11.776 15.4C11.6452 15.2706 11.5143 15.1412 11.5143 14.8824V6.47059C11.5143 6.21176 11.6452 6.08235 11.776 5.95294C11.9068 5.82353 12.1685 5.82353 12.4302 5.95294L20.2809 10.0941C20.5426 10.2235 20.6734 10.3529 20.6734 10.6118C20.6734 10.8706 20.4117 11.1294 20.15 11.2588Z" fill="#063051"/>
</svg>
