<svg width="125" height="125" viewBox="0 0 125 125" fill="none" xmlns="http://www.w3.org/2000/svg">
<g opacity="0.8">
<path d="M55.1438 35.3494C49.1143 41.0547 41.4207 34.0043 46.9446 27.8082C47.1657 27.5601 47.3928 27.3173 47.6254 27.0801C53.8222 20.7614 61.5723 29.2665 55.1438 35.3494Z" fill="#FEE9A3"/>
<path d="M75.9766 14.5161C69.9471 20.2214 62.2535 13.171 67.7773 6.97486C67.9985 6.72677 68.2255 6.48401 68.4582 6.24679C74.655 -0.0719064 82.4051 8.43324 75.9766 14.5161Z" fill="#FEE9A3"/>
<path d="M62.4994 20.8333C68.1792 20.8333 73.3279 23.1059 77.0859 26.7914C83.4047 32.9883 74.8995 40.7383 68.8166 34.3098C62.7055 27.8515 62.4994 20.8333 62.4994 20.8333Z" fill="#FEE9A3"/>
<path d="M47.9833 13.4765C42.278 7.44708 49.3284 -0.246531 55.5245 5.2773C59.8044 9.09278 62.4994 14.6482 62.4994 20.8333C62.4994 20.8333 54.0944 19.9349 47.9833 13.4765Z" fill="#FEE9A3"/>
<path d="M13.4766 35.3494C7.44709 41.0547 -0.246525 34.0043 5.27733 27.8082C5.4985 27.5601 5.72551 27.3173 5.95816 27.0801C12.155 20.7614 19.9051 29.2665 13.4766 35.3494Z" fill="#FEE9A3"/>
<path d="M34.3101 14.5161C28.2806 20.2214 20.587 13.171 26.1108 6.97486C26.332 6.72677 26.559 6.48401 26.7917 6.24679C32.9885 -0.0719064 40.7386 8.43324 34.3101 14.5161Z" fill="#FEE9A3"/>
<path d="M20.8339 20.8333C26.5137 20.8333 31.6624 23.1059 35.4204 26.7914C41.7391 32.9883 33.234 40.7383 27.1511 34.3098C21.04 27.8515 20.8339 20.8333 20.8339 20.8333Z" fill="#FEE9A3"/>
<path d="M6.31776 13.4765C0.61245 7.44708 7.66286 -0.246531 13.859 5.2773C18.1389 9.09278 20.8339 14.6482 20.8339 20.8333C20.8339 20.8333 12.4289 19.9349 6.31776 13.4765Z" fill="#FEE9A3"/>
<path d="M13.4766 77.0161C7.44709 82.7214 -0.246525 75.671 5.27733 69.4748C5.4985 69.2267 5.72551 68.984 5.95816 68.7468C12.155 62.4281 19.9051 70.9332 13.4766 77.0161Z" fill="#FEE9A3"/>
<path d="M34.3101 56.1827C28.2806 61.888 20.587 54.8376 26.1108 48.6415C26.332 48.3934 26.559 48.1506 26.7917 47.9134C32.9885 41.5947 40.7386 50.0998 34.3101 56.1827Z" fill="#FEE9A3"/>
<path d="M20.8339 62.4999C26.5137 62.4999 31.6624 64.7725 35.4204 68.458C41.7391 74.6549 33.234 82.4049 27.1511 75.9764C21.04 69.5181 20.8339 62.4999 20.8339 62.4999Z" fill="#FEE9A3"/>
<path d="M6.31776 55.1431C0.61245 49.1137 7.66286 41.4201 13.859 46.9439C18.1389 50.7594 20.8339 56.3148 20.8339 62.4999C20.8339 62.4999 12.4289 61.6015 6.31776 55.1431Z" fill="#FEE9A3"/>
<path d="M55.1438 77.0161C49.1143 82.7214 41.4207 75.671 46.9446 69.4748C47.1657 69.2267 47.3928 68.984 47.6254 68.7468C53.8222 62.4281 61.5723 70.9332 55.1438 77.0161Z" fill="#FEE9A3"/>
<path d="M75.9766 56.1827C69.9471 61.888 62.2535 54.8376 67.7773 48.6415C67.9985 48.3934 68.2255 48.1506 68.4582 47.9134C74.655 41.5947 82.4051 50.0998 75.9766 56.1827Z" fill="#FEE9A3"/>
<path d="M62.4994 62.4999C68.1792 62.4999 73.3279 64.7725 77.0859 68.458C83.4047 74.6549 74.8995 82.4049 68.8166 75.9764C62.7055 69.5181 62.4994 62.4999 62.4994 62.4999Z" fill="#FEE9A3"/>
<path d="M47.9833 55.1431C42.278 49.1137 49.3284 41.4201 55.5245 46.9439C59.8044 50.7594 62.4994 56.3148 62.4994 62.4999C62.4994 62.4999 54.0944 61.6015 47.9833 55.1431Z" fill="#FEE9A3"/>
<path d="M13.4766 118.683C7.44709 124.388 -0.246525 117.338 5.27733 111.141C5.4985 110.893 5.72551 110.651 5.95816 110.413C12.155 104.095 19.9051 112.6 13.4766 118.683Z" fill="#FEE9A3"/>
<path d="M34.3101 97.8494C28.2806 103.555 20.587 96.5043 26.1108 90.3081C26.332 90.0601 26.559 89.8173 26.7917 89.5801C32.9885 83.2614 40.7386 91.7665 34.3101 97.8494Z" fill="#FEE9A3"/>
<path d="M20.8339 104.167C26.5137 104.167 31.6624 106.439 35.4204 110.125C41.7391 116.322 33.234 124.072 27.1511 117.643C21.04 111.185 20.8339 104.167 20.8339 104.167Z" fill="#FEE9A3"/>
<path d="M6.31776 96.8098C0.61245 90.7804 7.66286 83.0868 13.859 88.6106C18.1389 92.4261 20.8339 97.9815 20.8339 104.167C20.8339 104.167 12.4289 103.268 6.31776 96.8098Z" fill="#FEE9A3"/>
<path d="M96.8093 35.3494C90.7799 41.0547 83.0862 34.0043 88.6101 27.8082C88.8313 27.5601 89.0583 27.3173 89.2909 27.0801C95.4878 20.7614 103.238 29.2665 96.8093 35.3494Z" fill="#FEE9A3"/>
<path d="M117.643 14.5161C111.614 20.2214 103.92 13.171 109.444 6.97486C109.665 6.72677 109.892 6.48401 110.125 6.24679C116.322 -0.0719064 124.072 8.43324 117.643 14.5161Z" fill="#FEE9A3"/>
<path d="M104.167 20.8333C109.846 20.8333 114.995 23.1059 118.753 26.7914C125.072 32.9883 116.567 40.7383 110.484 34.3098C104.373 27.8515 104.167 20.8333 104.167 20.8333Z" fill="#FEE9A3"/>
<path d="M89.6505 13.4765C83.9452 7.44708 90.9956 -0.246531 97.1918 5.2773C101.472 9.09278 104.167 14.6482 104.167 20.8333C104.167 20.8333 95.7616 19.9349 89.6505 13.4765Z" fill="#FEE9A3"/>
<ellipse cx="108.755" cy="63.1871" rx="6.25026" ry="5.40598" fill="#C7D9E5"/>
<ellipse cx="68.2525" cy="105.247" rx="6.25026" ry="5.40598" fill="#C7D9E5"/>
</g>
</svg>
