<svg width="1440" height="194" viewBox="0 0 1440 194" fill="none" xmlns="http://www.w3.org/2000/svg">
<g opacity="0.85">
<path d="M1104.19 48.549H1056.2V0.741821H1104.19V48.549Z" fill="#4C84B0"/>
<path d="M1092.2 24.6273C1092.2 18.0283 1086.84 12.6845 1080.21 12.6845C1073.59 12.6845 1068.22 18.0283 1068.22 24.6273C1068.22 31.2263 1073.59 36.5701 1080.21 36.5701C1086.8 36.5701 1092.2 31.2263 1092.2 24.6273Z" fill="white"/>
<path d="M1104.19 96.3563H1056.2V48.5491H1104.19V96.3563Z" fill="#063051"/>
<path d="M1056.2 96.3563C1056.2 69.9601 1077.69 48.5491 1104.19 48.5491V96.3563H1056.2Z" fill="#F15A42"/>
<path d="M720.155 96.3563H672.165V48.5491H720.155V96.3563Z" fill="#F15A42"/>
<path d="M672.165 96.3563C698.662 96.3563 720.155 74.9453 720.155 48.5491H672.165V96.3563Z" fill="#4C84B0"/>
<path d="M768.146 96.3563H720.155V48.5491H768.146V96.3563Z" fill="#063051"/>
<path d="M768.182 48.5491C768.182 74.9453 746.689 96.3563 720.191 96.3563V48.5491H768.182Z" fill="white"/>
<path d="M816.173 96.3563H768.182V48.5491H816.173V96.3563Z" fill="#063051"/>
<path d="M768.182 48.5491C768.182 74.9453 789.675 96.3563 816.173 96.3563V48.5491H768.182Z" fill="#4C84B0"/>
<path d="M864.163 96.3563H816.172V48.5491H864.163V96.3563Z" fill="#F15A42"/>
<path d="M864.163 48.5491C837.666 48.5491 816.172 69.9601 816.172 96.3563H864.163V48.5491Z" fill="#F7B750"/>
<path d="M912.154 96.3563H864.163V48.5491H912.154V96.3563Z" fill="white"/>
<path d="M864.163 72.4348C864.163 85.6328 874.892 96.3563 888.176 96.3563C901.461 96.3563 912.19 85.6687 912.19 72.4348C912.19 59.2008 901.461 48.5132 888.176 48.5132C874.892 48.5132 864.163 59.2367 864.163 72.4348Z" fill="#063051"/>
<path d="M960.18 96.3563H912.19V48.5491H960.18V96.3563Z" fill="#F7B750"/>
<path d="M960.18 96.3563C960.18 69.9601 938.687 48.5491 912.19 48.5491V96.3563H960.18Z" fill="white"/>
<path d="M720.155 48.549H672.165V0.741821H720.155V48.549Z" fill="#F15A42"/>
<path d="M672.165 24.6274C672.165 37.8255 682.893 48.549 696.178 48.549C709.463 48.549 720.191 37.8614 720.191 24.6274C720.191 11.3935 709.463 0.705936 696.178 0.705936C682.893 0.705936 672.165 11.4294 672.165 24.6274Z" fill="white"/>
<path d="M684.153 24.6273C684.153 31.2263 689.518 36.5701 696.142 36.5701C702.766 36.5701 708.167 31.2263 708.167 24.6273C708.167 18.0283 702.802 12.6845 696.178 12.6845C689.554 12.6845 684.153 18.0283 684.153 24.6273Z" fill="#063051"/>
<path d="M768.146 48.549H720.155V0.741821H768.146V48.549Z" fill="#063051"/>
<path d="M768.182 0.706055C741.684 0.706055 720.191 22.117 720.191 48.5132H768.182V0.706055Z" fill="#4C84B0"/>
<path d="M816.173 48.549H768.182V0.741821H816.173V48.549Z" fill="#F7B750"/>
<path d="M780.17 24.6273C780.17 31.2263 785.534 36.5701 792.159 36.5701C798.783 36.5701 804.147 31.2263 804.147 24.6273C804.147 18.0283 798.783 12.6845 792.159 12.6845C785.534 12.6845 780.17 18.0283 780.17 24.6273Z" fill="#063051"/>
<path d="M960.18 48.549H912.19V0.741821H960.18V48.549Z" fill="#063051"/>
<path d="M924.178 24.6273C924.178 31.2263 929.543 36.5701 936.167 36.5701C942.791 36.5701 948.156 31.2263 948.156 24.6273C948.156 18.0283 942.791 12.6845 936.167 12.6845C929.543 12.6845 924.178 18.0283 924.178 24.6273Z" fill="#F7B750"/>
<path d="M1056.2 96.3563H960.18V0.706123H1056.2V96.3563Z" fill="#4C84B0"/>
<path d="M960.18 48.5491C960.18 74.9453 981.674 96.3563 1008.17 96.3563C1034.67 96.3563 1056.2 74.9811 1056.2 48.5491C1056.2 22.1171 1034.7 0.742004 1008.17 0.742004C981.638 0.742004 960.18 22.153 960.18 48.5491Z" fill="white"/>
<path d="M984.181 48.705C984.181 61.903 994.91 72.6265 1008.19 72.6265C1021.48 72.6265 1032.21 61.9389 1032.21 48.705C1032.21 35.471 1021.48 24.7835 1008.19 24.7835C994.91 24.7835 984.181 35.5069 984.181 48.705Z" fill="#063051"/>
<path d="M192.696 96.3563H95.8496V0.734421H192.696V96.3563Z" fill="#4C84B0"/>
<path d="M96.0479 47.8071C96.0479 74.2033 117.541 95.6143 144.038 95.6143C170.536 95.6143 192.065 74.2391 192.065 47.8071C192.065 21.3751 170.572 0 144.038 0C117.505 0 96.0479 21.411 96.0479 47.8071Z" fill="white"/>
<path d="M120.049 47.963C120.049 61.161 130.778 71.8845 144.062 71.8845C157.347 71.8845 168.076 61.1969 168.076 47.963C168.076 34.729 157.347 24.0414 144.062 24.0414C130.778 24.0414 120.049 34.7649 120.049 47.963Z" fill="#063051"/>
<path d="M672.164 48.549H624.174V0.741821H672.164V48.549Z" fill="#4C84B0"/>
<path d="M660.176 24.6273C660.176 18.0283 654.812 12.6845 648.187 12.6845C641.563 12.6845 636.198 18.0283 636.198 24.6273C636.198 31.2263 641.563 36.5701 648.187 36.5701C654.776 36.5701 660.176 31.2263 660.176 24.6273Z" fill="white"/>
<path d="M672.164 96.3563H624.174V48.5491H672.164V96.3563Z" fill="#063051"/>
<path d="M624.174 48.5491C624.174 74.9453 645.667 96.3563 672.164 96.3563V48.5491H624.174Z" fill="#184D77"/>
<path d="M288.077 96.3563H240.086V48.5491H288.077V96.3563Z" fill="#F15A42"/>
<path d="M240.086 96.3563C266.584 96.3563 288.077 74.9453 288.077 48.5491H240.086V96.3563Z" fill="#4C84B0"/>
<path d="M288.077 48.549H240.086V0.741821H288.077V48.549Z" fill="#F15A42"/>
<path d="M240.086 24.6274C240.086 37.8255 250.815 48.549 264.1 48.549C277.384 48.549 288.113 37.8614 288.113 24.6274C288.113 11.3935 277.384 0.705936 264.1 0.705936C250.815 0.705936 240.086 11.4294 240.086 24.6274Z" fill="white"/>
<path d="M252.075 24.6273C252.075 31.2263 257.439 36.5701 264.064 36.5701C270.688 36.5701 276.088 31.2263 276.088 24.6273C276.088 18.0283 270.724 12.6845 264.1 12.6845C257.475 12.6845 252.075 18.0283 252.075 24.6273Z" fill="#063051"/>
<path d="M240.086 48.549H192.095V0.741821H240.086V48.549Z" fill="#4C84B0"/>
<path d="M228.097 24.6273C228.097 18.0283 222.733 12.6845 216.109 12.6845C209.484 12.6845 204.12 18.0283 204.12 24.6273C204.12 31.2263 209.484 36.5701 216.109 36.5701C222.697 36.5701 228.097 31.2263 228.097 24.6273Z" fill="white"/>
<path d="M240.086 96.3563H192.095V48.5491H240.086V96.3563Z" fill="#063051"/>
<path d="M192.095 48.5491C192.095 74.9453 213.589 96.3563 240.086 96.3563V48.5491H192.095Z" fill="#F15A42"/>
<path d="M624.174 96.3563H528.156V0.706123H624.174V96.3563Z" fill="#F7B750"/>
<path d="M528.156 48.5491C528.156 74.9453 549.649 96.3563 576.147 96.3563C602.644 96.3563 624.174 74.9811 624.174 48.5491C624.174 22.1171 602.68 0.742004 576.147 0.742004C549.613 0.742004 528.156 22.153 528.156 48.5491Z" fill="white"/>
<path d="M552.158 48.705C552.158 61.903 562.886 72.6265 576.171 72.6265C589.456 72.6265 600.184 61.9389 600.184 48.705C600.184 35.471 589.456 24.7835 576.171 24.7835C562.886 24.7835 552.158 35.5069 552.158 48.705Z" fill="#F7B750"/>
<path d="M912.166 48.5886H864.175V0.780766H912.166V48.5886Z" fill="#F15A42"/>
<path d="M864.175 0.780766C864.175 27.1773 885.668 48.5886 912.166 48.5886V0.780766H864.175Z" fill="#063051"/>
<path d="M47.9906 0.780762H0V48.5879H47.9906V0.780762Z" fill="white"/>
<path d="M0 24.7023C0 11.5042 10.7286 0.780762 24.0133 0.780762C37.2981 0.780762 48.0267 11.4683 48.0267 24.7023C48.0267 37.9362 37.2981 48.6238 24.0133 48.6238C10.7286 48.6238 0 37.9003 0 24.7023Z" fill="#063051"/>
<path d="M96.0172 0.780762H48.0266V48.5879H96.0172V0.780762Z" fill="#F7B750"/>
<path d="M96.0172 0.780762C96.0172 27.1769 74.5241 48.5879 48.0266 48.5879V0.780762H96.0172Z" fill="white"/>
<path d="M95.8497 48.542H47.5415V96.3491H95.8497V48.542Z" fill="#063051"/>
<path d="M60.0154 72.5095C60.0154 65.9105 65.3797 60.5667 72.004 60.5667C78.6284 60.5667 83.9927 65.9105 83.9927 72.5095C83.9927 79.1086 78.6284 84.4523 72.004 84.4523C65.3797 84.4523 60.0154 79.1086 60.0154 72.5095Z" fill="#F7B750"/>
<path d="M48.0028 48.5483H0.012207V96.3561H48.0028V48.5483Z" fill="#F15A42"/>
<path d="M0.012207 96.3561C0.012207 69.9596 21.5054 48.5483 48.0028 48.5483V96.3561H0.012207Z" fill="#063051"/>
<path d="M336.134 96.3563H288.143V48.5491H336.134V96.3563Z" fill="white"/>
<path d="M288.143 72.4348C288.143 85.6328 298.872 96.3563 312.156 96.3563C325.441 96.3563 336.17 85.6687 336.17 72.4348C336.17 59.2008 325.441 48.5132 312.156 48.5132C298.872 48.5132 288.143 59.2367 288.143 72.4348Z" fill="#063051"/>
<path d="M384.161 96.3563H336.17V48.5491H384.161V96.3563Z" fill="#F7B750"/>
<path d="M384.161 96.3563C384.161 69.9601 362.667 48.5491 336.17 48.5491V96.3563H384.161Z" fill="white"/>
<path d="M384.161 48.549H336.17V0.741821H384.161V48.549Z" fill="#063051"/>
<path d="M348.159 24.6273C348.159 31.2263 353.523 36.5701 360.147 36.5701C366.772 36.5701 372.136 31.2263 372.136 24.6273C372.136 18.0283 366.772 12.6845 360.147 12.6845C353.523 12.6845 348.159 18.0283 348.159 24.6273Z" fill="#F7B750"/>
<path d="M336.146 48.5886H288.155V0.780766H336.146V48.5886Z" fill="#F15A42"/>
<path d="M288.155 0.780766C288.155 27.1773 309.648 48.5886 336.146 48.5886V0.780766H288.155Z" fill="#063051"/>
<path d="M864.163 48.5886H816.172V0.780766H864.163V48.5886Z" fill="#063051"/>
<path d="M816.172 48.5886C842.67 48.5886 864.163 27.1773 864.163 0.780766H816.172V48.5886Z" fill="#F7B750"/>
<path d="M1344.21 0.886841H1392.2V48.694H1344.21V0.886841Z" fill="#F15A42"/>
<path d="M1392.2 0.886841C1365.71 0.886841 1344.21 22.2978 1344.21 48.694H1392.2V0.886841Z" fill="#4C84B0"/>
<path d="M1296.65 0.886841H1344.2V48.7778H1296.65V0.886841Z" fill="#063051"/>
<path d="M1296.19 0.886841C1296.19 27.283 1317.68 48.694 1344.18 48.694V0.886841H1296.19Z" fill="white"/>
<path d="M1248.35 0.886841H1296.65V48.7778H1248.35V0.886841Z" fill="#063051"/>
<path d="M1296.65 48.7778C1296.65 22.3354 1275.02 0.886841 1248.35 0.886841V48.7778H1296.65Z" fill="#4C84B0"/>
<path d="M1200.04 0.886841H1248.35V48.7778H1200.04V0.886841Z" fill="#F15A42"/>
<path d="M1200.04 48.7778C1226.71 48.7778 1248.35 27.3292 1248.35 0.886841H1200.04V48.7778Z" fill="#F7B750"/>
<path d="M1151.73 0.886841H1200.04V48.7778H1151.73V0.886841Z" fill="white"/>
<path d="M1200.21 24.8083C1200.21 11.6103 1189.48 0.886841 1176.19 0.886841C1162.91 0.886841 1152.18 11.5744 1152.18 24.8083C1152.18 38.0423 1162.91 48.7299 1176.19 48.7299C1189.48 48.7299 1200.21 38.0064 1200.21 24.8083Z" fill="#063051"/>
<path d="M1104.19 0.886841H1152.18V48.694H1104.19V0.886841Z" fill="#F7B750"/>
<path d="M1104.19 0.886841C1104.19 27.283 1125.68 48.694 1152.18 48.694V0.886841H1104.19Z" fill="white"/>
<path d="M1344.2 48.7778H1392.5V96.6687H1344.2V48.7778Z" fill="#F7B750"/>
<path d="M1392.2 72.6153C1392.2 59.4172 1381.48 48.6938 1368.19 48.6938C1354.91 48.6938 1344.18 59.3814 1344.18 72.6153C1344.18 85.8492 1354.91 96.5368 1368.19 96.5368C1381.48 96.5368 1392.2 85.8134 1392.2 72.6153Z" fill="white"/>
<path d="M1380.22 72.6154C1380.22 66.0163 1374.85 60.6725 1368.23 60.6725C1361.6 60.6725 1356.2 66.0163 1356.2 72.6154C1356.2 79.2144 1361.57 84.5582 1368.19 84.5582C1374.82 84.5582 1380.22 79.2144 1380.22 72.6154Z" fill="#063051"/>
<path d="M1296.22 48.6938H1344.21V96.5009H1296.22V48.6938Z" fill="#063051"/>
<path d="M1296.65 96.6687C1322.9 96.6687 1344.2 75.2202 1344.2 48.7778H1296.65V96.6687Z" fill="#4C84B0"/>
<path d="M1248.35 48.7778H1296.65V96.6687H1248.35V48.7778Z" fill="#F7B750"/>
<path d="M1284.2 72.6154C1284.2 66.0163 1278.83 60.6725 1272.21 60.6725C1265.59 60.6725 1260.22 66.0163 1260.22 72.6154C1260.22 79.2144 1265.59 84.5582 1272.21 84.5582C1278.83 84.5582 1284.2 79.2144 1284.2 72.6154Z" fill="#063051"/>
<path d="M1104.19 48.6938H1152.18V96.5009H1104.19V48.6938Z" fill="#063051"/>
<path d="M1140.19 72.6154C1140.19 66.0163 1134.83 60.6725 1128.2 60.6725C1121.58 60.6725 1116.21 66.0163 1116.21 72.6154C1116.21 79.2144 1121.58 84.5582 1128.2 84.5582C1134.83 84.5582 1140.19 79.2144 1140.19 72.6154Z" fill="#F7B750"/>
<path d="M1392.5 48.7778H1440.05V96.6687H1392.5V48.7778Z" fill="#4C84B0"/>
<path d="M1404.19 72.6154C1404.19 79.2144 1409.56 84.5582 1416.18 84.5582C1422.81 84.5582 1428.17 79.2144 1428.17 72.6154C1428.17 66.0163 1422.81 60.6725 1416.18 60.6725C1409.59 60.6725 1404.19 66.0163 1404.19 72.6154Z" fill="white"/>
<path d="M1392.2 0.886841H1440.19V48.694H1392.2V0.886841Z" fill="#063051"/>
<path d="M1440.19 48.694C1440.19 22.2978 1418.7 0.886841 1392.2 0.886841V48.694H1440.19Z" fill="#F15A42"/>
<path d="M1152.2 48.6544H1200.19V96.4622H1152.2V48.6544Z" fill="#F15A42"/>
<path d="M1200.04 96.6687C1200.04 70.2263 1178.4 48.7778 1151.73 48.7778V96.6687H1200.04Z" fill="#063051"/>
<path d="M1200.21 48.6544H1248.2V96.4622H1200.21V48.6544Z" fill="#063051"/>
<path d="M1248.35 48.7778C1221.67 48.7778 1200.04 70.2263 1200.04 96.6687H1248.35V48.7778Z" fill="#F7B750"/>
<path d="M480.166 0.705811H528.156V48.5129H480.166V0.705811Z" fill="#063051"/>
<path d="M480.13 48.513C480.13 22.1169 501.623 0.705872 528.12 0.705872V48.513H480.13Z" fill="#4C84B0"/>
<path d="M432.139 0.705811H480.13V48.5129H432.139V0.705811Z" fill="#063051"/>
<path d="M480.13 48.5129C480.13 22.1168 458.636 0.705811 432.139 0.705811V48.5129H480.13Z" fill="#F15A42"/>
<path d="M384.148 0.705811H432.139V48.5129H384.148V0.705811Z" fill="#F15A42"/>
<path d="M384.148 48.5129C410.646 48.5129 432.139 27.1019 432.139 0.705811H384.148V48.5129Z" fill="#F7B750"/>
<path d="M480.166 48.5132H528.156V96.3203H480.166V48.5132Z" fill="#063051"/>
<path d="M480.13 96.3561C506.627 96.3561 528.12 74.9451 528.12 48.549H480.13V96.3561Z" fill="#4C84B0"/>
<path d="M432.139 48.5132H480.13V96.3203H432.139V48.5132Z" fill="#F7B750"/>
<path d="M468.141 72.4348C468.141 65.8358 462.777 60.492 456.152 60.492C449.528 60.492 444.164 65.8358 444.164 72.4348C444.164 79.0339 449.528 84.3776 456.152 84.3776C462.777 84.3776 468.141 79.0339 468.141 72.4348Z" fill="#063051"/>
<path d="M384.148 48.4738H432.139V96.2816H384.148V48.4738Z" fill="#063051"/>
<path d="M432.139 48.4738C405.641 48.4738 384.148 69.8851 384.148 96.2816H432.139V48.4738Z" fill="#F7B750"/>
<path d="M95.8496 143.616C95.8496 170.579 74.5576 192.451 48.3082 192.451V143.616H95.8496Z" fill="#4C84B0"/>
<path d="M0.000114441 192.451H48.3083V143.616H0.000114441V192.451Z" fill="#F7B750"/>
<path d="M0.000114441 143.616C26.6729 143.616 48.3083 165.487 48.3083 192.451H0.000114441V143.616Z" fill="#F15A42"/>
<path d="M139.557 95.5686C139.557 122.097 119.982 143.616 95.8496 143.616V95.5686H139.557Z" fill="#4C84B0"/>
<path d="M84.3477 120.38C84.3477 127.126 79.0296 132.588 72.4623 132.588C65.895 132.588 60.5769 127.126 60.5769 120.38C60.5769 113.634 65.895 108.171 72.4623 108.171C79.0296 108.171 84.3477 113.634 84.3477 120.38Z" fill="#063051"/>
<path d="M0.000114441 143.616H48.3083V95.5686H0.000114441V143.616Z" fill="#063051"/>
<path d="M48.3083 143.616C21.6355 143.616 0.000114441 122.097 0.000114441 95.5686H48.3083V143.616Z" fill="#F7B750"/>
<path d="M48.3082 143.616H95.8496V95.5686H48.3082V143.616Z" fill="#F7B750"/>
<path d="M1344.2 144.56C1344.2 171.492 1365.83 193.337 1392.5 193.337V144.56H1344.2Z" fill="#4C84B0"/>
<path d="M1440.05 193.337H1392.5V144.56H1440.05V193.337Z" fill="#063051"/>
<path d="M1440.05 144.56C1413.8 144.56 1392.5 166.405 1392.5 193.337H1440.05V144.56Z" fill="#4C84B0"/>
<path d="M1296.65 96.6686C1296.65 123.111 1317.95 144.56 1344.2 144.56V96.6686H1296.65Z" fill="#063051"/>
<path d="M1440.05 144.56H1390.2V96.6686H1440.05V144.56Z" fill="#063051"/>
<path d="M1392.5 144.56C1418.75 144.56 1440.05 123.111 1440.05 96.6686H1392.5V144.56Z" fill="#184D77"/>
<path d="M1392.5 144.56H1344.2V96.6686H1392.5V144.56Z" fill="#F7B750"/>
<path d="M60.5769 120.646C60.5769 114.047 65.9412 108.703 72.5656 108.703C79.1899 108.703 84.5542 114.047 84.5542 120.646C84.5542 127.245 79.1899 132.589 72.5656 132.589C65.9412 132.589 60.5769 127.245 60.5769 120.646Z" fill="#063051"/>
</g>
</svg>
