<svg width="150" height="150" viewBox="0 0 150 150" fill="none" xmlns="http://www.w3.org/2000/svg">
<g opacity="0.7">
<path d="M66.1719 42.4193C58.9365 49.2657 49.7042 40.8052 56.3328 33.3698C56.5982 33.0721 56.8706 32.7808 57.1498 32.4962C64.586 24.9137 73.8861 35.1199 66.1719 42.4193Z" fill="#184D77"/>
<path d="M91.1716 17.4193C83.9363 24.2657 74.7039 15.8052 81.3326 8.36983C81.598 8.07213 81.8704 7.78081 82.1495 7.49615C89.5858 -0.0862858 98.8858 10.1199 91.1716 17.4193Z" fill="#184D77"/>
<path d="M75 25C81.8157 25 87.9942 27.7271 92.5038 32.1497C100.086 39.5859 89.8801 48.886 82.5806 41.1718C75.2473 33.4218 75 25 75 25Z" fill="#184D77"/>
<path d="M57.5806 16.1719C50.7343 8.93649 59.1947 -0.295836 66.6301 6.33277C71.766 10.9113 75 17.5778 75 25C75 25 64.914 23.9218 57.5806 16.1719Z" fill="#184D77"/>
<path d="M16.1719 42.4193C8.9365 49.2657 -0.29583 40.8052 6.3328 33.3698C6.5982 33.0721 6.87062 32.7808 7.14979 32.4962C14.586 24.9137 23.8861 35.1199 16.1719 42.4193Z" fill="#184D77"/>
<path d="M41.1719 17.4193C33.9365 24.2657 24.7042 15.8052 31.3328 8.36983C31.5982 8.07213 31.8706 7.78081 32.1498 7.49615C39.586 -0.0862858 48.8861 10.1199 41.1719 17.4193Z" fill="#184D77"/>
<path d="M25 25C31.8157 25 37.9942 27.7271 42.5038 32.1497C50.0863 39.5859 39.8801 48.886 32.5806 41.1718C25.2473 33.4218 25 25 25 25Z" fill="#184D77"/>
<path d="M7.58063 16.1719C0.734257 8.93649 9.19475 -0.295836 16.6301 6.33277C21.766 10.9113 25 17.5778 25 25C25 25 14.914 23.9218 7.58063 16.1719Z" fill="#184D77"/>
<path d="M16.1719 92.4192C8.9365 99.2656 -0.29583 90.8051 6.3328 83.3697C6.5982 83.072 6.87062 82.7807 7.14979 82.496C14.586 74.9136 23.8861 85.1198 16.1719 92.4192Z" fill="#184D77"/>
<path d="M41.1719 67.4193C33.9365 74.2657 24.7042 65.8052 31.3328 58.3698C31.5982 58.0721 31.8706 57.7808 32.1498 57.4962C39.586 49.9137 48.8861 60.1199 41.1719 67.4193Z" fill="#184D77"/>
<path d="M25 75C31.8157 75 37.9942 77.7271 42.5038 82.1497C50.0863 89.5859 39.8801 98.886 32.5806 91.1718C25.2473 83.4218 25 75 25 75Z" fill="#184D77"/>
<path d="M7.58063 66.1719C0.734257 58.9365 9.19475 49.7042 16.6301 56.3328C21.766 60.9113 25 67.5778 25 75C25 75 14.914 73.9218 7.58063 66.1719Z" fill="#184D77"/>
<path d="M66.1719 92.4192C58.9365 99.2656 49.7042 90.8051 56.3328 83.3697C56.5982 83.072 56.8706 82.7807 57.1498 82.496C64.586 74.9136 73.8861 85.1198 66.1719 92.4192Z" fill="#184D77"/>
<path d="M91.1716 67.4193C83.9363 74.2657 74.7039 65.8052 81.3326 58.3698C81.598 58.0721 81.8704 57.7808 82.1495 57.4962C89.5858 49.9137 98.8858 60.1199 91.1716 67.4193Z" fill="#184D77"/>
<path d="M75 75C81.8157 75 87.9942 77.7271 92.5038 82.1497C100.086 89.5859 89.8801 98.886 82.5806 91.1718C75.2473 83.4218 75 75 75 75Z" fill="#184D77"/>
<path d="M57.5806 66.1719C50.7343 58.9365 59.1947 49.7042 66.6301 56.3328C71.766 60.9113 75 67.5778 75 75C75 75 64.914 73.9218 57.5806 66.1719Z" fill="#184D77"/>
<path d="M16.1719 142.419C8.9365 149.266 -0.29583 140.805 6.3328 133.37C6.5982 133.072 6.87062 132.781 7.14979 132.496C14.586 124.914 23.8861 135.12 16.1719 142.419Z" fill="#184D77"/>
<path d="M41.1719 117.419C33.9365 124.266 24.7042 115.805 31.3328 108.37C31.5982 108.072 31.8706 107.781 32.1498 107.496C39.586 99.9137 48.8861 110.12 41.1719 117.419Z" fill="#184D77"/>
<path d="M25 125C31.8157 125 37.9942 127.727 42.5038 132.15C50.0863 139.586 39.8801 148.886 32.5806 141.172C25.2473 133.422 25 125 25 125Z" fill="#184D77"/>
<path d="M7.58063 116.172C0.734257 108.936 9.19475 99.7042 16.6301 106.333C21.766 110.911 25 117.578 25 125C25 125 14.914 123.922 7.58063 116.172Z" fill="#184D77"/>
<path d="M116.172 42.4193C108.937 49.2657 99.7042 40.8052 106.333 33.3698C106.598 33.0721 106.871 32.7808 107.15 32.4962C114.586 24.9137 123.886 35.1199 116.172 42.4193Z" fill="#184D77"/>
<path d="M141.172 17.4193C133.937 24.2657 124.704 15.8052 131.333 8.36983C131.598 8.07213 131.871 7.78081 132.15 7.49615C139.586 -0.0862858 148.886 10.1199 141.172 17.4193Z" fill="#184D77"/>
<path d="M125 25C131.816 25 137.994 27.7271 142.504 32.1497C150.086 39.5859 139.88 48.886 132.581 41.1718C125.247 33.4218 125 25 125 25Z" fill="#184D77"/>
<path d="M107.581 16.1719C100.734 8.93649 109.195 -0.295836 116.63 6.33277C121.766 10.9113 125 17.5778 125 25C125 25 114.914 23.9218 107.581 16.1719Z" fill="#184D77"/>
<ellipse cx="130.505" cy="75.8245" rx="7.50031" ry="6.48717" fill="#F7B750"/>
<ellipse cx="81.9034" cy="126.296" rx="7.50031" ry="6.48717" fill="#F7B750"/>
</g>
</svg>
