<svg width="27" height="30" viewBox="0 0 27 30" fill="none" xmlns="http://www.w3.org/2000/svg">
<path d="M22.2562 6.01329C20.6404 4.96 19.4735 3.27345 19.1103 1.30831C19.0321 0.883992 18.9881 0.446818 18.9881 0H13.8299L13.8213 20.6715C13.7346 22.9859 11.8294 24.8439 9.49354 24.8439C8.76813 24.8439 8.08451 24.6628 7.48232 24.3457C6.10222 23.6192 5.15823 22.1727 5.15823 20.5075C5.15823 18.117 7.10301 16.1712 9.49354 16.1712C9.94035 16.1712 10.3679 16.2451 10.7729 16.3715V11.1061C10.354 11.0494 9.92857 11.0129 9.49354 11.0129C4.25816 11.0129 0 15.2722 0 20.5065C0 23.7188 1.60511 26.5605 4.0535 28.2792C5.5954 29.3614 7.4716 30 9.49461 30C14.73 30 18.9881 25.7408 18.9881 20.5065V10.025C21.0111 11.4769 23.4895 12.333 26.164 12.333V7.1748C24.7228 7.1748 23.3813 6.74727 22.2562 6.01329Z" fill="#063051"/>
</svg>
