<svg width="40" height="40" viewBox="0 0 40 40" fill="none" xmlns="http://www.w3.org/2000/svg">
<path d="M26.6666 35V31.6667C26.6666 29.8986 25.9642 28.2029 24.714 26.9526C23.4638 25.7024 21.7681 25 20 25H8.33329C6.56518 25 4.86949 25.7024 3.61925 26.9526C2.369 28.2029 1.66663 29.8986 1.66663 31.6667V35M33.3333 13.3333V23.3333M38.3333 18.3333H28.3333M20.8333 11.6667C20.8333 15.3486 17.8485 18.3333 14.1666 18.3333C10.4847 18.3333 7.49996 15.3486 7.49996 11.6667C7.49996 7.98477 10.4847 5 14.1666 5C17.8485 5 20.8333 7.98477 20.8333 11.6667Z" stroke="#063051" stroke-width="3" stroke-linecap="round" stroke-linejoin="round"/>
</svg>
